HIERARCHY
ROOT SpineBase
{
  OFFSET 0.000000 0.000000 0.000000
  CHANNELS 6 Xposition Yposition Zposition Zrotation Xrotation Yrotation
  JOINT SpineMid
  {
    OFFSET 0.000000 30.704014 0.000000
    CHANNELS 3 Zrotation Xrotation Yrotation
    JOINT SpineShoulder
    {
      OFFSET 0.567115 22.729120 -0.926842
      CHANNELS 3 Zrotation Xrotation Yrotation
      JOINT Neck
      {
        OFFSET 0.222843 7.558944 -0.621165
        CHANNELS 3 Zrotation Xrotation Yrotation
        JOINT Head
        {
          OFFSET 2.550669 9.004364 5.688209
          CHANNELS 3 Zrotation Xrotation Yrotation
          End Site
          {
            OFFSET 0 0 0
          }
        }
      }
      JOINT ShoulderLeft
      {
        OFFSET -2.434400 -4.032173 -9.534538
        CHANNELS 3 Zrotation Xrotation Yrotation
        JOINT ElbowLeft
        {
          OFFSET -1.666004 -23.471631 -7.305425
          CHANNELS 3 Zrotation Xrotation Yrotation
          JOINT WristLeft
          {
            OFFSET 4.430791 -22.384290 -1.295217
            CHANNELS 3 Zrotation Xrotation Yrotation
            JOINT HandLeft
            {
              OFFSET 0.055030 -6.224683 2.925800
              CHANNELS 3 Zrotation Xrotation Yrotation
              JOINT HandTipLeft
              {
                OFFSET 2.067504 -7.744954 1.914990
                CHANNELS 3 Zrotation Xrotation Yrotation
                End Site
                {
                  OFFSET 0 0 0
                }
              }
              JOINT ThumbLeft
              {
                OFFSET 6.577435 2.648452 4.583452
                CHANNELS 3 Zrotation Xrotation Yrotation
                End Site
                {
                  OFFSET 0 0 0
                }
              }
            }
          }
        }
      }
      JOINT ShoulderRight
      {
        OFFSET 14.366297 -10.047960 5.696037
        CHANNELS 3 Zrotation Xrotation Yrotation
        JOINT ElbowRight
        {
          OFFSET 1.124285 -24.011965 -4.710741
          CHANNELS 3 Zrotation Xrotation Yrotation
          JOINT WristRight
          {
            OFFSET -8.937858 6.311285 13.271119
            CHANNELS 3 Zrotation Xrotation Yrotation
            JOINT HandRight
            {
              OFFSET -2.929934 2.007032 4.800036
              CHANNELS 3 Zrotation Xrotation Yrotation
              JOINT HandTipRight
              {
                OFFSET -0.782088 0.186026 1.120144
                CHANNELS 3 Zrotation Xrotation Yrotation
                End Site
                {
                  OFFSET 0 0 0
                }
              }
              JOINT ThumbRight
              {
                OFFSET -0.318424 0.462065 -2.358410
                CHANNELS 3 Zrotation Xrotation Yrotation
                End Site
                {
                  OFFSET 0 0 0
                }
              }
            }
          }
        }
      }
    }
  }
  JOINT HipLeft
  {
    OFFSET -4.668499 2.319416 -7.734471
    CHANNELS 3 Zrotation Xrotation Yrotation
    JOINT KneeLeft
    {
      OFFSET 3.137266 -31.558177 1.736688
      CHANNELS 3 Zrotation Xrotation Yrotation
      JOINT AnkleLeft
      {
        OFFSET -9.136845 -34.697280 -2.618830
        CHANNELS 3 Zrotation Xrotation Yrotation
        JOINT FootLeft
        {
          OFFSET 5.718029 -3.283197 -10.001738
          CHANNELS 3 Zrotation Xrotation Yrotation
          End Site
          {
            OFFSET 0 0 0
          }
        }
      }
    }
  }
  JOINT HipRight
  {
    OFFSET 4.264045 -0.220531 0.486111
    CHANNELS 3 Zrotation Xrotation Yrotation
    JOINT KneeRight
    {
      OFFSET -12.612249 -33.905889 1.756889
      CHANNELS 3 Zrotation Xrotation Yrotation
      JOINT AnkleRight
      {
        OFFSET -9.797508 -28.369559 8.086651
        CHANNELS 3 Zrotation Xrotation Yrotation
        JOINT FootRight
        {
          OFFSET 3.999071 -6.080867 -11.516928
          CHANNELS 3 Zrotation Xrotation Yrotation
          End Site
          {
            OFFSET 0 0 0
          }
        }
      }
    }
  }
}
MOTION
Frames: 11
Frame Time: 0.033333
26.930810 70.479669 339.492315 -3.466928 -0.464065 -34.372078 1.913534 1.886579 34.296385 0.822834 -0.013300 0.033987 -4.476786 -0.347078 2.887192 0.000000 0.000000 0.000000 -5.514243 2.648801 1.639629 86.991214 -15.440524 5.491095 30.195087 55.758583 -2.303829 -26.628719 -8.170061 -22.458899 0.000000 0.000000 0.000000 0.000000 0.000000 0.000000 -5.098740 -0.472333 0.960558 -74.734350 -50.549950 -58.213463 3.086431 29.009141 -70.356313 18.584205 -35.667697 48.051353 0.000000 0.000000 0.000000 0.000000 0.000000 0.000000 -0.620167 3.979472 34.703339 2.954715 -3.517907 -0.105113 -3.313683 -2.741906 1.049463 0.000000 0.000000 0.000000 4.075841 1.578417 34.839090 -0.774488 1.466434 -0.574663 -1.103271 0.019764 2.115269 0.000000 0.000000 0.000000
27.170513 70.480983 339.468940 -3.236523 -0.496127 -33.019402 1.638209 1.491572 32.945337 1.050228 0.138238 0.038122 -5.035582 -0.710335 3.323770 0.000000 0.000000 0.000000 -5.180055 2.704197 1.527517 91.813284 -8.876660 2.168375 52.802548 66.978193 -49.624259 -31.497645 -30.599727 -11.864685 0.000000 0.000000 0.000000 0.000000 0.000000 0.000000 -5.669624 -0.067657 1.109341 -87.218552 -46.129481 -77.558755 0.200811 33.543969 -61.184224 23.853201 -34.551627 52.440669 0.000000 0.000000 0.000000 0.000000 0.000000 0.000000 -1.110437 3.798290 33.357384 3.347098 -3.304840 -0.175327 -4.494949 -4.801097 1.776060 0.000000 0.000000 0.000000 3.890352 0.822675 33.661759 -0.450692 1.929540 -0.733135 -0.575056 2.148192 2.434068 0.000000 0.000000 0.000000
27.334934 70.615826 339.393778 -3.277031 -0.419167 -29.848973 1.699672 1.176584 29.773468 0.220146 0.052292 -0.032734 -4.251803 -1.013052 3.671782 0.000000 0.000000 0.000000 -1.760157 3.803359 0.762983 94.272942 0.008470 -2.286998 71.431189 65.480729 -93.427001 -14.835941 -47.511761 17.474418 0.000000 0.000000 0.000000 0.000000 0.000000 0.000000 -4.958839 1.238190 1.368248 -94.819176 -40.645853 -91.637733 -6.661808 27.527133 -43.169032 17.556462 -27.828445 44.207999 0.000000 0.000000 0.000000 0.000000 0.000000 0.000000 -1.268855 4.106554 30.247183 3.505394 -3.699666 -0.206802 -2.085516 0.142708 3.272429 0.000000 0.000000 0.000000 4.131079 -0.172443 30.754214 -0.177676 2.626257 -0.982791 0.108582 4.554527 2.589748 0.000000 0.000000 0.000000
27.524614 70.862412 339.303902 -3.382285 -0.281727 -26.292584 1.860958 0.862879 26.217727 0.062540 0.003479 -0.048696 -4.168830 -1.045141 3.859635 0.000000 0.000000 0.000000 1.213789 4.456950 -0.181754 95.667715 9.943394 -8.791010 64.309827 62.684529 -104.046824 0.319681 -44.791189 40.980491 0.000000 0.000000 0.000000 0.000000 0.000000 0.000000 -5.324343 -0.457907 1.347264 -95.551992 -36.423369 -97.335633 -7.424162 11.860876 -22.644542 5.079792 -14.494927 28.856783 0.000000 0.000000 0.000000 0.000000 0.000000 0.000000 -1.387268 4.510670 26.767114 3.727163 -4.226796 -0.236783 -1.030059 1.120018 2.013340 0.000000 0.000000 0.000000 4.417225 -0.948985 27.385320 -0.098161 3.090115 -1.153378 1.268948 8.039998 2.458058 0.000000 0.000000 0.000000
27.178843 71.034675 338.933869 -4.286942 0.143600 -18.310459 2.506896 0.437635 18.229064 -0.077130 -0.172328 -0.076048 -3.378925 -0.766912 3.725452 0.000000 0.000000 0.000000 5.690289 6.649719 -1.720568 94.623702 21.138325 -14.949107 55.231749 57.835846 -110.982947 13.896502 -39.803699 69.884194 0.000000 0.000000 0.000000 0.000000 0.000000 0.000000 -5.322960 0.362683 1.592707 -94.377783 -32.896841 -103.518041 -4.951823 -0.483878 -11.942080 1.668795 -4.226542 23.917450 0.000000 0.000000 0.000000 0.000000 0.000000 0.000000 0.939586 5.288852 18.843453 2.788370 -4.664986 -0.368271 -0.971696 0.475340 0.981435 0.000000 0.000000 0.000000 6.254313 -3.173011 20.141291 0.321399 5.905613 -2.038409 0.782253 7.412729 2.317526 0.000000 0.000000 0.000000
26.769579 71.152032 338.413666 -5.228951 0.671815 -8.744942 2.991540 -0.256403 8.673766 -0.142401 -0.438916 -0.103567 -2.489954 0.040205 3.413511 0.000000 0.000000 0.000000 9.696842 9.310067 -3.266594 92.007769 30.920933 -19.552007 48.780072 53.176398 -111.205521 14.007683 -36.675252 79.548029 0.000000 0.000000 0.000000 0.000000 0.000000 0.000000 -4.509756 5.295305 2.108781 -96.460105 -29.638176 -112.922462 -2.774729 -5.222298 -7.365084 0.256913 1.838578 22.789191 0.000000 0.000000 0.000000 0.000000 0.000000 0.000000 3.621338 5.235002 9.328422 1.858562 -4.995454 -0.511559 -5.389622 -7.711774 0.309764 0.000000 0.000000 0.000000 7.363786 -6.614972 11.544288 0.538676 8.609641 -3.018993 1.456532 10.216830 2.347780 0.000000 0.000000 0.000000
25.807891 71.391400 338.308619 -6.981528 0.537706 1.959478 3.799269 -0.582313 -2.048210 -0.293053 -0.510020 -0.155947 -1.054947 0.277550 3.148562 0.000000 0.000000 0.000000 15.251371 12.511192 -5.487401 86.759891 39.122662 -21.511746 44.436343 49.092536 -111.781790 11.264142 -33.423762 85.575199 0.000000 0.000000 0.000000 0.000000 0.000000 0.000000 -4.984675 4.490979 2.460622 -94.446441 -30.686889 -110.392971 -2.408193 -10.944308 -5.661072 -0.868609 11.004716 21.162418 0.000000 0.000000 0.000000 0.000000 0.000000 0.000000 8.245904 5.679634 -1.228511 -0.109950 -6.085740 -0.842021 -12.904780 -20.242439 -1.755118 0.000000 0.000000 0.000000 8.811771 -9.533670 1.648633 -0.086014 10.919067 -3.867295 1.688192 10.502932 2.130427 0.000000 0.000000 0.000000
25.160815 71.477227 338.143730 -8.000695 0.511164 2.965632 3.899060 -0.540190 -3.088286 -0.451983 -0.500208 -0.212350 0.349767 0.718329 2.886077 0.000000 0.000000 0.000000 21.311872 15.698580 -8.127155 79.616967 44.024869 -19.870135 46.074672 47.527728 -105.179357 2.857504 -34.814046 74.707085 0.000000 0.000000 0.000000 0.000000 0.000000 0.000000 -3.473874 10.485613 3.106590 -99.205039 -29.108846 -117.423720 -3.017256 -8.491618 -7.004589 -0.294821 11.967989 22.893492 0.000000 0.000000 0.000000 0.000000 0.000000 0.000000 10.484491 5.104278 -2.224414 -1.302633 -5.692294 -0.942675 -31.337041 -41.477461 -13.581602 0.000000 0.000000 0.000000 10.442580 -10.899999 1.235451 -0.148551 12.991226 -4.609360 0.289364 7.599469 2.741561 0.000000 0.000000 0.000000
24.308544 71.619659 337.880782 -9.204482 0.710550 0.903437 4.015584 -0.421585 -1.055565 -0.583131 -0.423520 -0.274511 1.930924 0.590728 2.739930 0.000000 0.000000 0.000000 27.908425 18.186819 -11.006553 71.152184 46.892266 -16.451729 50.000199 52.134921 -78.751811 -11.334125 -38.298778 43.060791 0.000000 0.000000 0.000000 0.000000 0.000000 0.000000 -1.444434 15.487903 3.500372 -106.229995 -26.619718 -122.651195 -1.483882 -10.126476 -4.251336 -1.954374 13.777595 18.540542 0.000000 0.000000 0.000000 0.000000 0.000000 0.000000 12.903702 4.278108 -0.174701 -2.765274 -4.696091 -0.987851 -93.016832 -56.330789 -69.480711 0.000000 0.000000 0.000000 13.091409 -11.732126 3.938033 -0.424802 15.007843 -5.344115 -2.413286 -0.473458 2.935448 0.000000 0.000000 0.000000
23.999252 71.579078 337.633404 -9.669330 0.880237 -2.168049 3.675888 -0.131994 1.991939 -0.611745 -0.263578 -0.312026 3.107941 -0.005528 2.666024 0.000000 0.000000 0.000000 33.412635 19.691990 -13.485954 64.385102 45.711803 -11.253994 17.577616 54.102651 2.317436 -18.128675 -11.726886 -11.776226 0.000000 0.000000 0.000000 0.000000 0.000000 0.000000 2.308767 24.941036 3.391747 -117.807253 -19.004160 -132.385720 0.218758 -9.312816 -2.100443 -2.376759 12.153073 15.686113 0.000000 0.000000 0.000000 0.000000 0.000000 0.000000 13.892868 3.823759 2.816259 -3.576996 -3.710975 -0.923689 -115.019365 -50.551814 -90.912642 0.000000 0.000000 0.000000 14.248433 -12.007210 7.390863 0.589758 16.464521 -5.943406 -4.322729 -3.844662 3.343508 0.000000 0.000000 0.000000
24.227308 71.401902 337.478621 -9.479719 0.924164 -4.443151 2.952192 0.111899 4.244507 -0.568689 -0.044499 -0.326009 4.288303 -0.577938 2.341689 0.000000 0.000000 0.000000 39.380360 19.553482 -16.023255 56.236233 42.989835 -6.064393 7.244857 41.636474 43.703609 -11.440360 2.810094 -39.509652 0.000000 0.000000 0.000000 0.000000 0.000000 0.000000 13.083162 36.750240 -0.666697 -131.900813 -5.274946 -143.420398 4.441172 -7.994511 2.395741 -6.344936 14.967555 10.801331 0.000000 0.000000 0.000000 0.000000 0.000000 0.000000 13.504719 3.898924 5.013400 -4.331957 -3.703118 -0.748348 -113.168703 -49.971466 -90.745088 0.000000 0.000000 0.000000 13.741471 -12.040775 9.717039 2.225512 17.625027 -6.510093 -4.835170 -3.216189 4.088149 0.000000 0.000000 0.000000
